<svg width="84" height="82" viewBox="0 0 84 82" fill="none" xmlns="http://www.w3.org/2000/svg">
<path d="M26.8994 26.2607C27.6573 24.7376 29.8556 24.7836 30.5352 26.3369L38.874 45.3955C39.0809 45.8688 39.0944 46.4049 38.9121 46.8896L26.5303 79.8203C26.2357 80.6029 25.4826 81.123 24.6436 81.123H2C0.495831 81.1229 -0.466383 79.5366 0.232422 78.209L14.9707 50.2344L26.8994 26.2607ZM53.2988 25.6475C54.0153 24.1521 56.1199 24.118 56.8701 25.5898L69.4707 50.3193L76.1299 64.0107L82.8242 78.0557C83.4586 79.3874 82.4873 80.9342 81.0166 80.9346L58.5303 80.9355C57.715 80.9353 56.9838 80.4353 56.6846 79.6738L43.8193 46.9219C43.6152 46.4022 43.6372 45.8186 43.8789 45.3135L53.2988 25.6475ZM39.7783 1.12012C40.4963 -0.345235 42.5717 -0.380582 43.3389 1.05957L52.2178 17.7334C52.5185 18.2985 52.5304 18.9733 52.25 19.5488L43.373 37.7627C42.6296 39.2875 40.4442 39.252 39.75 37.7041L31.5811 19.4893C31.3378 18.9469 31.3478 18.3238 31.6094 17.79L39.7783 1.12012Z" fill="url(#paint0_linear_108_578)"/>
<defs>
<linearGradient id="paint0_linear_108_578" x1="41.5108" y1="0" x2="80" y2="74" gradientUnits="userSpaceOnUse">
<stop stop-color="#8002FE"/>
<stop stop-color="#8002FE"/>
<stop offset="1" stop-color="#5B00B6"/>
<stop offset="1" stop-color="#6601CC"/>
</linearGradient>
</defs>
</svg>
