<svg width="84" height="82" viewBox="0 0 84 82" fill="none" xmlns="http://www.w3.org/2000/svg">
<path d="M26.8992 26.2608C27.6571 24.7376 29.8554 24.7836 30.5349 26.3369L38.8738 45.3955C39.0807 45.8688 39.0942 46.4049 38.9119 46.8897L26.5301 79.8203C26.2355 80.6029 25.4824 81.123 24.6433 81.1231H1.99978C0.495616 81.1229 -0.466598 79.5366 0.232207 78.209L14.9705 50.2344L26.8992 26.2608ZM53.2986 25.6475C54.0151 24.1521 56.1197 24.118 56.8699 25.5899L69.4705 50.3194L76.1297 64.0108L82.824 78.0557C83.4583 79.3874 82.4871 80.9342 81.0164 80.9346L58.5301 80.9356C57.7148 80.9353 56.9836 80.4354 56.6844 79.6738L43.8191 46.9219C43.615 46.4022 43.637 45.8186 43.8787 45.3135L53.2986 25.6475ZM39.7781 1.12013C40.4961 -0.345218 42.5715 -0.380566 43.3387 1.05959L52.2176 17.7334C52.5183 18.2985 52.5301 18.9734 52.2498 19.5488L43.3728 37.7627C42.6294 39.2875 40.444 39.252 39.7498 37.7041L31.5808 19.4893C31.3376 18.947 31.3476 18.3238 31.6092 17.7901L39.7781 1.12013Z" fill="black"/>
</svg>
