<svg width="343" height="82" viewBox="0 0 343 82" fill="none" xmlns="http://www.w3.org/2000/svg">
<path d="M26.8992 26.2608C27.6571 24.7376 29.8554 24.7836 30.5349 26.3369L38.8738 45.3955C39.0807 45.8688 39.0942 46.4049 38.9119 46.8897L26.5301 79.8203C26.2355 80.6029 25.4824 81.123 24.6433 81.1231H1.99978C0.495616 81.1229 -0.466598 79.5366 0.232207 78.209L14.9705 50.2344L26.8992 26.2608ZM53.2986 25.6475C54.015 24.1519 56.1196 24.1181 56.8699 25.5899L69.4705 50.3194L76.1306 64.0108L82.825 78.0557C83.459 79.3875 82.4872 80.9345 81.0164 80.9346L58.531 80.9356C57.7156 80.9355 56.9837 80.4354 56.6844 79.6738L43.8201 46.9219C43.616 46.4022 43.6379 45.8186 43.8797 45.3135L53.2986 25.6475ZM39.7781 1.12013C40.4961 -0.345218 42.5715 -0.380565 43.3387 1.05959L52.2176 17.7334C52.5183 18.2985 52.5301 18.9734 52.2498 19.5488L43.3728 37.7627C42.6294 39.2875 40.444 39.252 39.7498 37.7041L31.5808 19.4893C31.3376 18.947 31.3476 18.3238 31.6092 17.7901L39.7781 1.12013Z" fill="white"/>
<path d="M149.496 59.072H125.052L120.852 71H110.856L131.772 12.536H142.86L163.776 71H153.696L149.496 59.072ZM146.808 51.26L137.316 24.128L127.74 51.26H146.808ZM177.742 18.584C176.006 18.584 174.55 17.996 173.374 16.82C172.198 15.644 171.61 14.188 171.61 12.452C171.61 10.716 172.198 9.26 173.374 8.084C174.55 6.908 176.006 6.32 177.742 6.32C179.422 6.32 180.85 6.908 182.026 8.084C183.202 9.26 183.79 10.716 183.79 12.452C183.79 14.188 183.202 15.644 182.026 16.82C180.85 17.996 179.422 18.584 177.742 18.584ZM182.446 24.716V71H172.87V24.716H182.446ZM203.503 63.188H224.503V71H192.415V63.188L213.499 32.528H192.415V24.716H224.503V32.528L203.503 63.188ZM276.978 46.724C276.978 48.46 276.866 50.028 276.642 51.428H241.278C241.558 55.124 242.93 58.092 245.394 60.332C247.858 62.572 250.882 63.692 254.466 63.692C259.618 63.692 263.258 61.536 265.386 57.224H275.718C274.318 61.48 271.77 64.98 268.074 67.724C264.434 70.412 259.898 71.756 254.466 71.756C250.042 71.756 246.066 70.776 242.538 68.816C239.066 66.8 236.322 64 234.306 60.416C232.346 56.776 231.366 52.576 231.366 47.816C231.366 43.056 232.318 38.884 234.222 35.3C236.182 31.66 238.898 28.86 242.37 26.9C245.898 24.94 249.93 23.96 254.466 23.96C258.834 23.96 262.726 24.912 266.142 26.816C269.558 28.72 272.218 31.408 274.122 34.88C276.026 38.296 276.978 42.244 276.978 46.724ZM266.982 43.7C266.926 40.172 265.666 37.344 263.202 35.216C260.738 33.088 257.686 32.024 254.046 32.024C250.742 32.024 247.914 33.088 245.562 35.216C243.21 37.288 241.81 40.116 241.362 43.7H266.982ZM309.754 23.96C313.394 23.96 316.642 24.716 319.498 26.228C322.41 27.74 324.678 29.98 326.302 32.948C327.926 35.916 328.738 39.5 328.738 43.7V71H319.246V45.128C319.246 40.984 318.21 37.82 316.138 35.636C314.066 33.396 311.238 32.276 307.654 32.276C304.07 32.276 301.214 33.396 299.086 35.636C297.014 37.82 295.978 40.984 295.978 45.128V71H286.402V24.716H295.978V30.008C297.546 28.104 299.534 26.62 301.942 25.556C304.406 24.492 307.01 23.96 309.754 23.96Z" fill="white"/>
</svg>
